<?xml version="1.0" encoding="UTF-8" standalone="no"?><!DOCTYPE svg PUBLIC "-//W3C//DTD SVG 1.1//EN" "http://www.w3.org/Graphics/SVG/1.1/DTD/svg11.dtd"><svg width="100%" height="100%" viewBox="0 0 1601 327" version="1.1" xmlns="http://www.w3.org/2000/svg" xmlns:xlink="http://www.w3.org/1999/xlink" xml:space="preserve" xmlns:serif="http://www.serif.com/" style="fill-rule:evenodd;clip-rule:evenodd;stroke-linejoin:round;stroke-miterlimit:2;"><path d="M478.354,238.183l0,31.284l35.008,-0l0,1.45l-35.008,-0l0,34.162l-1.646,0l0,-68.342l45.15,0l0,1.446l-43.504,0Z" style="fill:#6c7d3f;fill-rule:nonzero;"/><path d="M543.246,243.133c-0.7,0 -1.254,-0.196 -1.663,-0.621c-0.42,-0.404 -0.616,-0.958 -0.616,-1.658c-0,-0.683 0.196,-1.237 0.616,-1.646c0.409,-0.421 0.963,-0.633 1.663,-0.633c0.683,-0 1.237,0.212 1.658,0.633c0.409,0.409 0.621,0.963 0.621,1.646c-0,0.7 -0.212,1.254 -0.621,1.658c-0.421,0.425 -0.975,0.621 -1.658,0.621Zm0.829,61.929l-1.658,0l-0,-51.774l1.658,-0l0,51.774Z" style="fill:#6c7d3f;fill-rule:nonzero;"/><path d="M607.863,305.079l-21.13,-25.587l-19.983,25.587l-2.279,0l21.125,-26.921l-20.396,-24.854l2.492,0l19.158,23.292l18.212,-23.292l2.28,0l-19.354,24.642l22.362,27.133l-2.487,0Z" style="fill:#6c7d3f;fill-rule:nonzero;"/><path d="M693.846,295.037c3.175,3.725 5.796,6.284 7.862,7.667c2.067,1.383 4.184,2.067 6.317,2.067l-0.1,1.35c-2.425,-0 -4.733,-0.717 -6.933,-2.167c-2.213,-1.462 -4.913,-4.004 -8.088,-7.662c-4.966,6.558 -11.833,9.829 -20.604,9.829c-5.65,-0 -10.354,-1.384 -14.079,-4.134c-3.663,-2.766 -5.488,-6.529 -5.488,-11.295c0,-3.388 0.717,-6.317 2.167,-8.805c1.529,-2.558 3.529,-4.82 6.004,-6.82c2.554,-2.005 5.975,-4.25 10.254,-6.738c-3.645,-4.9 -6.104,-8.529 -7.341,-10.875c-1.25,-2.408 -1.871,-4.929 -1.871,-7.55c-0,-4.217 1.321,-7.571 3.937,-10.058c2.621,-2.475 6.138,-3.729 10.567,-3.729c4.213,-0 7.55,1.108 10.042,3.32c2.554,2.213 3.825,5.175 3.825,8.905c-0,3.791 -1.171,7.208 -3.517,10.254c-2.342,2.962 -6.592,6.25 -12.746,9.829c-0.275,0.146 -0.471,0.275 -0.617,0.425l4.671,6.217l2.688,3.516c5.516,7.242 9.487,12.321 11.912,15.217c2.279,-3.321 3.921,-7.242 4.963,-11.8c1.108,-4.558 1.662,-9.488 1.662,-14.813l1.546,0c0,5.325 -0.587,10.384 -1.758,15.217c-1.109,4.838 -2.863,9.05 -5.275,12.633Zm-30.238,-45.133c0,1.725 0.209,3.271 0.617,4.654c0.487,1.384 1.317,2.996 2.492,4.867c1.17,1.854 3.058,4.558 5.696,8.071l0.616,-0.309c5.942,-3.45 10.013,-6.558 12.225,-9.325c2.279,-2.816 3.417,-6.008 3.417,-9.52c-0,-3.242 -1.104,-5.83 -3.321,-7.767c-2.213,-2 -5.175,-3.008 -8.9,-3.008c-3.875,-0 -6.983,1.137 -9.329,3.416c-2.342,2.213 -3.513,5.175 -3.513,8.921Zm8.379,54.767c8.63,-0 15.267,-3.204 19.892,-9.634c-3.533,-4.2 -7.537,-9.312 -12.012,-15.316c-1.871,-2.492 -4.459,-5.875 -7.763,-10.159c-4.15,2.425 -7.425,4.559 -9.85,6.43c-2.408,1.791 -4.346,3.891 -5.792,6.316c-1.383,2.346 -2.066,5.142 -2.066,8.384c-0,4.279 1.642,7.695 4.962,10.254c3.388,2.487 7.6,3.725 12.629,3.725Z" style="fill:#6c7d3f;fill-rule:nonzero;"/><path d="M807.163,280.746c-0,8.075 -2.28,14.325 -6.838,18.733c-4.475,4.429 -10.808,6.625 -18.946,6.625c-8.154,0 -14.5,-2.196 -19.058,-6.625c-4.475,-4.408 -6.721,-10.658 -6.721,-18.733l0,-44.009l1.658,0l0,44.009c0,7.583 2.1,13.491 6.317,17.708c4.279,4.133 10.204,6.2 17.804,6.2c7.6,0 13.496,-2.067 17.708,-6.2c4.284,-4.217 6.413,-10.125 6.413,-17.708l0,-44.009l1.663,0l-0,44.009Z" style="fill:#6c7d3f;fill-rule:nonzero;"/><path d="M857.846,252.262c7.454,0 13.246,2.375 17.383,7.146c4.213,4.771 6.329,11.363 6.329,19.775c0,8.429 -2.116,15.025 -6.329,19.775c-4.137,4.771 -9.929,7.146 -17.383,7.146c-5.388,0 -9.946,-1.417 -13.671,-4.233c-3.662,-2.829 -6.154,-6.884 -7.458,-12.125l-0,37.096l-1.659,-0l0,-73.538l1.659,0l-0,15.546c1.304,-5.258 3.796,-9.329 7.458,-12.225c3.658,-2.896 8.217,-4.346 13.671,-4.346l-0,-0.017Zm-0.308,52.392c7.029,0 12.512,-2.246 16.454,-6.721c3.937,-4.491 5.908,-10.741 5.908,-18.75c0,-8.008 -1.971,-14.258 -5.908,-18.733c-3.942,-4.492 -9.425,-6.738 -16.454,-6.738c-6.367,0 -11.43,2.246 -15.238,6.738c-3.725,4.475 -5.583,10.596 -5.583,18.325l-0,0.717c-0,7.812 1.858,13.95 5.583,18.441c3.808,4.475 8.871,6.721 15.238,6.721Z" style="fill:#6c7d3f;fill-rule:nonzero;"/><path d="M948.404,229.475l0,75.604l-1.641,0l-0,-15.546c-1.321,5.259 -3.809,9.329 -7.455,12.225c-3.662,2.896 -8.221,4.346 -13.675,4.346c-7.454,0 -13.296,-2.375 -17.495,-7.146c-4.15,-4.75 -6.217,-11.346 -6.217,-19.775c-0,-8.412 2.067,-15.004 6.216,-19.775c4.2,-4.771 10.042,-7.146 17.496,-7.146c5.388,0 9.896,1.417 13.559,4.25c3.729,2.83 6.25,6.867 7.571,12.109l-0,-39.146l1.641,-0Zm-22.458,75.179c6.346,0 11.391,-2.246 15.117,-6.721c3.795,-4.491 5.7,-10.596 5.7,-18.325l-0,-0.733c-0,-7.796 -1.905,-13.95 -5.7,-18.425c-3.726,-4.492 -8.771,-6.738 -15.117,-6.738c-7.05,0 -12.533,2.246 -16.475,6.738c-3.921,4.475 -5.892,10.725 -5.892,18.733c0,8.009 1.971,14.259 5.892,18.75c3.942,4.475 9.425,6.721 16.475,6.721Z" style="fill:#6c7d3f;fill-rule:nonzero;"/><path d="M1016.5,304.654c1.792,0 3.092,-0.308 3.921,-0.925l-0.096,1.446c-0.896,0.621 -2.15,0.929 -3.729,0.929c-2.067,0 -3.825,-0.683 -5.288,-2.067c-1.449,-1.383 -2.166,-3.875 -2.166,-7.454l-0,-1.45c-1.383,3.517 -4.117,6.234 -8.188,8.171c-4,1.871 -8.346,2.8 -13.033,2.8c-5.046,0 -9.017,-1.075 -11.917,-3.208c-2.833,-2.146 -4.245,-5.142 -4.245,-9.017c-0,-4.067 1.479,-7.275 4.458,-9.617c2.962,-2.362 7.829,-4.149 14.6,-5.387l18.325,-3.417l-0,-6.429c-0,-4.837 -1.417,-8.596 -4.246,-11.279c-2.833,-2.704 -6.9,-4.038 -12.225,-4.038c-4.75,0 -8.658,0.959 -11.7,2.896c-3.029,1.938 -5.308,5.029 -6.838,9.309l-1.333,-1.025c1.579,-4.28 4.004,-7.455 7.242,-9.521c3.237,-2.084 7.454,-3.109 12.629,-3.109c5.875,0 10.354,1.45 13.463,4.346c3.108,2.834 4.67,6.967 4.67,12.421l0,28.171c0,2.492 0.471,4.346 1.446,5.583c1.029,1.254 2.442,1.871 4.25,1.871Zm-28.075,0c2.979,0 6.054,-0.55 9.229,-1.658c3.238,-1.109 5.971,-2.8 8.167,-5.079c2.217,-2.342 3.321,-5.175 3.321,-8.48l-0,-12.533l-17.188,3.209c-6.625,1.237 -11.391,2.962 -14.287,5.174c-2.834,2.213 -4.25,5.08 -4.25,8.592c-0,3.388 1.321,6.042 3.937,7.975c2.688,1.875 6.384,2.8 11.071,2.8Z" style="fill:#6c7d3f;fill-rule:nonzero;"/><path d="M1063.15,302.167c-1.088,1.17 -2.537,2.129 -4.346,2.895c-1.725,0.684 -3.579,1.042 -5.583,1.042c-8.284,0 -12.433,-4.704 -12.433,-14.096l-0,-37.271l-10.35,0l-0,-1.449l10.35,-0l-0,-13.459l1.662,-0.521l0,13.98l19.983,-0l0,1.45l-19.983,-0l0,37.27c0,4.217 0.862,7.392 2.588,9.538c1.787,2.066 4.524,3.091 8.183,3.091c3.729,0 6.758,-1.266 9.116,-3.824l0.813,1.354Z" style="fill:#6c7d3f;fill-rule:nonzero;"/><path d="M1123.31,280.321l-43.375,-0c0.192,7.666 2.246,13.625 6.1,17.904c3.875,4.283 9.184,6.429 15.955,6.429c4.345,0 8.25,-1.042 11.7,-3.108c3.516,-2.067 6.137,-4.9 7.862,-8.496l1.35,0.733c-1.792,3.859 -4.558,6.9 -8.283,9.113c-3.729,2.133 -7.942,3.208 -12.63,3.208c-7.454,0 -13.299,-2.375 -17.499,-7.146c-4.15,-4.766 -6.217,-11.358 -6.217,-19.775c-0,-8.429 2.033,-15.021 6.104,-19.775c4.15,-4.771 9.846,-7.146 17.092,-7.146c6.833,0 12.187,2.409 16.046,7.242c3.875,4.838 5.795,11.525 5.795,20.088l0,0.729Zm-21.841,-26.609c-6.692,0 -11.95,2.196 -15.742,6.625c-3.792,4.409 -5.729,10.563 -5.792,18.425l41.925,0c-0.129,-7.862 -1.954,-14.016 -5.483,-18.425c-3.517,-4.429 -8.479,-6.625 -14.908,-6.625Z" style="fill:#6c7d3f;fill-rule:nonzero;"/><path d="M86.913,1.154l-11.88,0l-75.033,163.088l12.825,-0l68.033,-150.034l68.263,150.034l12.808,-0l-75.016,-163.088Z" style="fill:#6c7d3f;fill-rule:nonzero;"/><path d="M207.7,1.154l0,163.088l105.775,-0l-0,-10.709l-93.862,0l-0,-152.379l-11.913,0Z" style="fill:#73854f;fill-rule:nonzero;"/><path d="M382.863,154.704c12.825,7.225 27.262,10.708 43.341,10.708c11.654,0 22.363,-1.854 32.388,-5.825c10.012,-3.729 18.637,-9.554 25.62,-17.008l-7.454,-7.683c-13.283,13.054 -30.046,19.562 -50.083,19.562c-13.75,0 -26.104,-3.025 -37.287,-9.308c-11.18,-6.054 -20.034,-14.679 -26.317,-25.633c-6.529,-10.955 -9.554,-23.292 -9.554,-36.8c-0,-13.525 3.025,-25.638 9.554,-36.592c6.283,-10.95 15.137,-19.563 26.317,-25.863c11.183,-6.054 23.537,-9.308 37.287,-9.308c20.267,0 37.046,6.513 50.083,19.338l7.454,-7.7c-6.983,-7.455 -15.608,-13.038 -25.391,-16.763c-10.025,-3.729 -20.963,-5.829 -32.617,-5.829c-16.079,-0 -30.516,3.729 -43.341,10.708c-12.813,7.229 -22.821,17.013 -30.292,29.592c-7.454,12.583 -10.938,26.792 -10.938,42.417c0,15.837 3.484,29.816 10.938,42.395c7.471,12.584 17.479,22.592 30.292,29.592Z" style="fill:#7a8c5f;fill-rule:nonzero;"/><path d="M562.629,154.704c12.809,7.225 27.246,10.708 43.329,10.708c15.85,0 30.288,-3.483 43.342,-10.708c12.808,-7 22.833,-17.008 30.292,-29.592c7.454,-12.579 11.179,-26.558 11.179,-42.395c-0,-15.625 -3.725,-29.834 -11.179,-42.417c-7.459,-12.579 -17.484,-22.363 -30.292,-29.592c-13.054,-6.979 -27.492,-10.708 -43.342,-10.708c-16.083,-0 -30.52,3.729 -43.329,10.954c-13.054,7.213 -23.079,17.008 -30.533,29.592c-7.454,12.579 -10.938,26.787 -10.938,42.171c0,15.608 3.484,29.57 10.938,42.154c7.454,12.579 17.479,22.608 30.533,29.833Zm80.371,-9.554c-11.179,6.283 -23.533,9.308 -37.042,9.308c-13.737,0 -26.091,-3.025 -37.275,-9.308c-11.179,-6.054 -19.808,-14.679 -26.087,-25.633c-6.529,-10.955 -9.554,-23.292 -9.554,-36.8c-0,-13.525 3.025,-25.638 9.554,-36.592c6.279,-10.95 14.908,-19.563 26.087,-25.863c11.184,-6.054 23.538,-9.308 37.275,-9.308c13.509,0 25.863,3.254 37.042,9.308c10.954,6.3 19.583,14.913 26.092,25.863c6.3,10.954 9.554,23.067 9.554,36.592c-0,13.508 -3.254,25.845 -9.554,36.8c-6.509,10.954 -15.138,19.579 -26.092,25.633Z" style="fill:#81946f;fill-rule:nonzero;"/><path d="M791.667,108.104l65.708,-106.95l-12.354,0l-58.954,96l-58.934,-96l-13.054,0l65.704,106.95l0,56.154l11.884,0l-0,-56.154Z" style="fill:#899b80;fill-rule:nonzero;"/><path d="M1096,1.154l-11.879,0l-0,141.654l-110.892,-141.666l-10.025,-0l-0,163.083l11.896,-0l-0,-141.65l111.133,141.65l9.784,-0l-0.017,-163.071Z" style="fill:#90a390;fill-rule:nonzero;"/><path d="M1274.69,76.154l-105.534,0l0,10.5l105.534,0l-0,-10.5Zm-0,-75.012l-105.534,-0l0,10.725l105.534,-0l-0,-10.725Zm-105.534,152.375l0,10.708l105.534,-0l-0,-10.708l-105.534,-0Z" style="fill:#97aaa0;fill-rule:nonzero;"/><path d="M1441.41,164.242l13.98,-0l-62.68,-84.342l58.25,-78.746l-13.279,0l-51.954,70.138l-51.954,-70.138l-13.979,0l58.237,78.992l-62.662,84.096l13.979,-0l55.908,-75.488l56.154,75.488Z" style="fill:#9eb2b0;fill-rule:nonzero;"/><path d="M1529.42,11.867l-0,152.375l11.883,-0l0,-152.375l58.709,-0l-0,-10.713l-129.296,0l-0,10.713l58.704,-0Z" style="fill:#a5b9c0;fill-rule:nonzero;"/></svg>