<?xml version="1.0" encoding="UTF-8" standalone="no"?><!DOCTYPE svg PUBLIC "-//W3C//DTD SVG 1.1//EN" "http://www.w3.org/Graphics/SVG/1.1/DTD/svg11.dtd"><svg width="100%" height="100%" viewBox="0 0 2135 438" version="1.1" xmlns="http://www.w3.org/2000/svg" xmlns:xlink="http://www.w3.org/1999/xlink" xml:space="preserve" xmlns:serif="http://www.serif.com/" style="fill-rule:evenodd;clip-rule:evenodd;stroke-linejoin:round;stroke-miterlimit:2;"><g><g id="path538366"><path d="M531.704,407.428l-27.733,-41.739c-0.555,0.093 -1.479,0.139 -2.773,0.139l-30.923,0l0,41.6l-2.219,0l0,-91.52l33.142,0c8.967,0 16.039,2.219 21.216,6.656c5.177,4.437 7.765,10.539 7.765,18.304c0,6.933 -2.08,12.572 -6.24,16.917c-4.16,4.253 -9.938,6.841 -17.333,7.766l27.594,41.877l-2.496,0Zm-30.506,-43.541c8.412,-0 14.976,-2.034 19.69,-6.102c4.715,-4.067 7.072,-9.706 7.072,-16.917c0,-7.211 -2.357,-12.85 -7.072,-16.917c-4.714,-4.068 -11.278,-6.102 -19.69,-6.102l-30.923,0l0,46.038l30.923,-0Z" style="fill:#6c7d3f;fill-rule:nonzero;"/></g><g id="path538368"><path d="M617.188,374.226l-58.102,0c0.278,10.262 3.005,18.258 8.182,23.99c5.177,5.731 12.295,8.597 21.354,8.597c5.824,0 11.047,-1.387 15.67,-4.16c4.714,-2.773 8.227,-6.564 10.538,-11.371l1.803,0.971c-2.404,5.177 -6.101,9.244 -11.093,12.203c-4.992,2.865 -10.631,4.298 -16.918,4.298c-9.984,0 -17.795,-3.189 -23.434,-9.568c-5.547,-6.378 -8.32,-15.207 -8.32,-26.485c-0,-11.278 2.727,-20.107 8.181,-26.485c5.547,-6.379 13.173,-9.568 22.88,-9.568c9.152,-0 16.316,3.235 21.493,9.706c5.177,6.471 7.766,15.439 7.766,26.902l-0,0.97Zm-29.259,-35.637c-8.967,0 -15.993,2.958 -21.077,8.875c-5.085,5.916 -7.673,14.144 -7.766,24.682l56.16,0c-0.185,-10.538 -2.634,-18.766 -7.349,-24.682c-4.715,-5.917 -11.371,-8.875 -19.968,-8.875Z" style="fill:#6c7d3f;fill-rule:nonzero;"/></g><g id="path538370"><path d="M678.629,336.623c9.984,0 17.75,3.189 23.296,9.568c5.639,6.379 8.459,15.207 8.459,26.485c0,11.279 -2.82,20.107 -8.459,26.486c-5.546,6.378 -13.312,9.568 -23.296,9.568c-7.21,-0 -13.312,-1.895 -18.304,-5.686c-4.899,-3.79 -8.227,-9.198 -9.984,-16.224l0,49.643l-2.218,0l-0,-98.453l2.218,-0l0,20.8c1.757,-7.026 5.085,-12.48 9.984,-16.363c4.9,-3.883 11.001,-5.824 18.304,-5.824Zm-0.416,70.165c9.43,0 16.779,-3.004 22.048,-9.013c5.27,-6.009 7.904,-14.375 7.904,-25.099c0,-10.723 -2.634,-19.089 -7.904,-25.098c-5.269,-6.009 -12.618,-9.014 -22.048,-9.014c-8.505,0 -15.299,3.005 -20.384,9.014c-4.992,6.009 -7.488,14.19 -7.488,24.544l0,0.97c0,10.447 2.496,18.674 7.488,24.683c5.085,6.009 11.879,9.013 20.384,9.013Z" style="fill:#6c7d3f;fill-rule:nonzero;"/></g><g id="path538372"><path d="M796.453,406.813c2.403,0 4.16,-0.416 5.269,-1.248l-0.139,1.941c-1.201,0.832 -2.865,1.248 -4.992,1.248c-2.773,0 -5.13,-0.924 -7.072,-2.773c-1.941,-1.849 -2.912,-5.177 -2.912,-9.984l0,-1.941c-1.849,4.714 -5.5,8.366 -10.954,10.954c-5.362,2.496 -11.186,3.744 -17.472,3.744c-6.749,0 -12.064,-1.433 -15.947,-4.298c-3.79,-2.866 -5.685,-6.887 -5.685,-12.064c-0,-5.455 1.987,-9.753 5.962,-12.896c3.975,-3.143 10.493,-5.547 19.552,-7.211l24.544,-4.576l0,-8.597c0,-6.471 -1.895,-11.51 -5.685,-15.115c-3.79,-3.605 -9.244,-5.408 -16.363,-5.408c-6.378,0 -11.601,1.294 -15.669,3.883c-4.068,2.588 -7.118,6.748 -9.152,12.48l-1.803,-1.387c2.127,-5.732 5.362,-9.984 9.707,-12.757c4.345,-2.774 9.984,-4.16 16.917,-4.16c7.858,-0 13.867,1.941 18.027,5.824c4.16,3.79 6.24,9.337 6.24,16.64l0,37.717c0,3.328 0.647,5.824 1.941,7.488c1.387,1.664 3.282,2.496 5.686,2.496Zm-37.579,0c3.975,0 8.089,-0.74 12.341,-2.219c4.345,-1.479 7.997,-3.744 10.955,-6.794c2.958,-3.143 4.437,-6.934 4.437,-11.371l0,-16.779l-23.018,4.299c-8.875,1.664 -15.254,3.975 -19.136,6.933c-3.791,2.959 -5.686,6.795 -5.686,11.51c0,4.529 1.757,8.089 5.27,10.677c3.605,2.496 8.551,3.744 14.837,3.744Z" style="fill:#6c7d3f;fill-rule:nonzero;"/></g><g id="path538374"><path d="M827.611,324.525c-0.924,-0 -1.664,-0.278 -2.219,-0.832c-0.554,-0.555 -0.832,-1.295 -0.832,-2.219c0,-0.924 0.278,-1.664 0.832,-2.219c0.555,-0.554 1.295,-0.832 2.219,-0.832c0.924,0 1.664,0.278 2.219,0.832c0.554,0.555 0.832,1.295 0.832,2.219c-0,0.924 -0.278,1.664 -0.832,2.219c-0.555,0.554 -1.295,0.832 -2.219,0.832Zm1.109,82.922l-2.218,0l-0,-69.333l2.218,0l0,69.333Z" style="fill:#6c7d3f;fill-rule:nonzero;"/></g><g id="path538376"><path d="M889.943,336.683c4.345,0 7.626,1.109 9.845,3.328l-1.248,1.664c-1.017,-1.017 -2.172,-1.756 -3.467,-2.219c-1.201,-0.554 -3.004,-0.832 -5.408,-0.832c-4.16,0 -7.95,1.341 -11.37,4.022c-3.421,2.681 -6.148,6.24 -8.182,10.677c-1.941,4.345 -2.912,8.921 -2.912,13.728l0,40.352l-2.218,0l-0,-69.333l2.218,-0l0,18.026c1.572,-5.639 4.391,-10.261 8.459,-13.866c4.068,-3.698 8.828,-5.547 14.283,-5.547Z" style="fill:#6c7d3f;fill-rule:nonzero;"/></g><g id="path538378"><path d="M1010.14,393.983c4.252,4.992 7.765,8.412 10.538,10.261c2.774,1.849 5.593,2.774 8.459,2.774l-0.139,1.802c-3.235,0 -6.332,-0.97 -9.29,-2.912c-2.959,-1.941 -6.564,-5.361 -10.816,-10.261c-6.656,8.782 -15.855,13.173 -27.595,13.173c-7.58,0 -13.867,-1.849 -18.859,-5.546c-4.899,-3.698 -7.349,-8.736 -7.349,-15.115c0,-4.53 0.971,-8.459 2.912,-11.787c2.034,-3.42 4.715,-6.471 8.043,-9.152c3.42,-2.681 7.996,-5.685 13.728,-9.013c-4.9,-6.564 -8.182,-11.417 -9.846,-14.56c-1.664,-3.236 -2.496,-6.61 -2.496,-10.123c0,-5.639 1.757,-10.122 5.27,-13.45c3.513,-3.328 8.227,-4.992 14.144,-4.992c5.639,-0 10.122,1.479 13.45,4.437c3.421,2.958 5.131,6.933 5.131,11.925c0,5.085 -1.572,9.661 -4.715,13.728c-3.143,3.975 -8.828,8.367 -17.056,13.174c-0.369,0.185 -0.647,0.369 -0.832,0.554l6.24,8.32l3.606,4.715c7.395,9.707 12.711,16.501 15.946,20.384c3.051,-4.437 5.27,-9.707 6.656,-15.808c1.479,-6.101 2.219,-12.711 2.219,-19.829l2.08,-0c0,7.118 -0.786,13.913 -2.357,20.384c-1.479,6.471 -3.837,12.11 -7.072,16.917Zm-40.491,-60.459c0,2.311 0.277,4.391 0.832,6.24c0.647,1.849 1.756,4.022 3.328,6.518c1.572,2.496 4.114,6.101 7.627,10.816l0.832,-0.416c7.95,-4.623 13.404,-8.783 16.362,-12.48c3.051,-3.791 4.576,-8.043 4.576,-12.758c0,-4.345 -1.479,-7.811 -4.437,-10.4c-2.958,-2.681 -6.933,-4.021 -11.925,-4.021c-5.177,0 -9.337,1.525 -12.48,4.576c-3.143,2.958 -4.715,6.933 -4.715,11.925Zm11.232,73.355c11.556,0 20.43,-4.299 26.624,-12.896c-4.715,-5.639 -10.076,-12.48 -16.085,-20.523c-2.496,-3.328 -5.963,-7.857 -10.4,-13.589c-5.547,3.236 -9.938,6.101 -13.174,8.597c-3.235,2.404 -5.824,5.223 -7.765,8.459c-1.849,3.143 -2.773,6.887 -2.773,11.232c-0,5.732 2.218,10.308 6.656,13.728c4.529,3.328 10.169,4.992 16.917,4.992Z" style="fill:#6c7d3f;fill-rule:nonzero;"/></g><g id="path538380"><path d="M1161.31,374.856c0,10.816 -3.05,19.183 -9.152,25.099c-6.009,5.916 -14.467,8.875 -25.376,8.875c-10.908,-0 -19.413,-2.959 -25.514,-8.875c-6.009,-5.916 -9.014,-14.283 -9.014,-25.099l0,-58.933l2.219,0l0,58.933c0,10.169 2.82,18.073 8.459,23.712c5.731,5.547 13.681,8.32 23.85,8.32c10.169,0 18.073,-2.773 23.712,-8.32c5.732,-5.639 8.598,-13.543 8.598,-23.712l-0,-58.933l2.218,0l0,58.933Z" style="fill:#6c7d3f;fill-rule:nonzero;"/></g><g id="path538382"><path d="M1228.75,336.623c9.984,0 17.75,3.189 23.296,9.568c5.639,6.379 8.459,15.207 8.459,26.485c0,11.279 -2.82,20.107 -8.459,26.486c-5.546,6.378 -13.312,9.568 -23.296,9.568c-7.21,-0 -13.312,-1.895 -18.304,-5.686c-4.899,-3.79 -8.227,-9.198 -9.984,-16.224l0,49.643l-2.218,0l-0,-98.453l2.218,-0l0,20.8c1.757,-7.026 5.085,-12.48 9.984,-16.363c4.9,-3.883 11.001,-5.824 18.304,-5.824Zm-0.416,70.165c9.43,0 16.779,-3.004 22.048,-9.013c5.27,-6.009 7.904,-14.375 7.904,-25.099c0,-10.723 -2.634,-19.089 -7.904,-25.098c-5.269,-6.009 -12.618,-9.014 -22.048,-9.014c-8.505,0 -15.299,3.005 -20.384,9.014c-4.992,6.009 -7.488,14.19 -7.488,24.544l0,0.97c0,10.447 2.496,18.674 7.488,24.683c5.085,6.009 11.879,9.013 20.384,9.013Z" style="fill:#6c7d3f;fill-rule:nonzero;"/></g><g id="path538384"><path d="M1325.48,402.268c7.025,0 12.618,1.387 16.778,4.16c4.16,2.773 6.24,6.471 6.24,11.093c0,3.883 -1.34,7.303 -4.021,10.262c-2.588,2.958 -6.286,5.269 -11.093,6.933c-4.807,1.664 -10.308,2.496 -16.502,2.496c-9.799,-0 -17.564,-1.71 -23.296,-5.131c-5.731,-3.328 -8.597,-7.811 -8.597,-13.45c0,-3.883 1.387,-7.211 4.16,-9.984c2.866,-2.681 6.656,-4.438 11.371,-5.27c-3.513,-0.924 -6.287,-2.403 -8.32,-4.437c-1.942,-2.126 -2.912,-4.576 -2.912,-7.349c-0,-3.513 1.34,-6.425 4.021,-8.736c2.681,-2.404 6.148,-3.929 10.4,-4.576c-4.807,-1.572 -8.551,-4.068 -11.232,-7.488c-2.588,-3.513 -3.883,-7.627 -3.883,-12.342c0,-6.563 2.496,-11.833 7.488,-15.808c5.085,-3.975 11.741,-5.962 19.968,-5.962c6.656,-0 12.249,1.34 16.779,4.021c0.277,-4.715 1.803,-8.459 4.576,-11.232c2.773,-2.773 6.425,-4.16 10.955,-4.16l0.693,1.941c-4.345,0 -7.812,1.295 -10.4,3.883c-2.496,2.588 -3.836,6.148 -4.021,10.677c2.773,1.942 4.899,4.345 6.378,7.211c1.479,2.773 2.219,5.916 2.219,9.429c0,6.564 -2.496,11.833 -7.488,15.808c-4.9,3.975 -11.463,5.963 -19.691,5.963c-2.588,-0 -5.269,-0.231 -8.042,-0.693c-4.807,0.277 -8.783,1.525 -11.926,3.744c-3.05,2.218 -4.576,4.899 -4.576,8.042c0,3.236 1.479,5.871 4.438,7.904c2.958,2.034 7.118,3.051 12.48,3.051l17.056,0Zm-34.667,-43.819c0,6.009 2.311,10.816 6.933,14.422c4.623,3.605 10.724,5.408 18.304,5.408c7.581,-0 13.636,-1.803 18.166,-5.408c4.529,-3.606 6.794,-8.413 6.794,-14.422c0,-6.009 -2.265,-10.816 -6.794,-14.421c-4.53,-3.605 -10.585,-5.408 -18.166,-5.408c-7.58,0 -13.681,1.803 -18.304,5.408c-4.622,3.605 -6.933,8.412 -6.933,14.421Zm26.347,76.822c5.454,-0 10.4,-0.74 14.837,-2.219c4.437,-1.479 7.904,-3.559 10.4,-6.24c2.588,-2.588 3.883,-5.593 3.883,-9.013c-0,-4.068 -1.895,-7.35 -5.686,-9.846c-3.79,-2.496 -8.874,-3.744 -15.253,-3.744l-17.749,0c-6.009,0 -10.909,1.295 -14.699,3.883c-3.79,2.681 -5.685,6.101 -5.685,10.261c-0,5.085 2.681,9.152 8.042,12.203c5.455,3.143 12.758,4.715 21.91,4.715Z" style="fill:#6c7d3f;fill-rule:nonzero;"/></g><g id="path538386"><path d="M1398.53,336.683c4.345,0 7.627,1.109 9.845,3.328l-1.248,1.664c-1.017,-1.017 -2.172,-1.756 -3.466,-2.219c-1.202,-0.554 -3.005,-0.832 -5.408,-0.832c-4.16,0 -7.951,1.341 -11.371,4.022c-3.42,2.681 -6.148,6.24 -8.181,10.677c-1.942,4.345 -2.912,8.921 -2.912,13.728l-0,40.352l-2.219,0l0,-69.333l2.219,-0l-0,18.026c1.571,-5.639 4.391,-10.261 8.458,-13.866c4.068,-3.698 8.829,-5.547 14.283,-5.547Z" style="fill:#6c7d3f;fill-rule:nonzero;"/></g><g id="path538388"><path d="M1486.79,406.813c2.404,0 4.16,-0.416 5.269,-1.248l-0.138,1.941c-1.202,0.832 -2.866,1.248 -4.992,1.248c-2.774,0 -5.131,-0.924 -7.072,-2.773c-1.942,-1.849 -2.912,-5.177 -2.912,-9.984l-0,-1.941c-1.849,4.714 -5.501,8.366 -10.955,10.954c-5.362,2.496 -11.186,3.744 -17.472,3.744c-6.748,0 -12.064,-1.433 -15.947,-4.298c-3.79,-2.866 -5.685,-6.887 -5.685,-12.064c-0,-5.455 1.988,-9.753 5.963,-12.896c3.975,-3.143 10.492,-5.547 19.552,-7.211l24.544,-4.576l-0,-8.597c-0,-6.471 -1.895,-11.51 -5.686,-15.115c-3.79,-3.605 -9.244,-5.408 -16.362,-5.408c-6.379,0 -11.602,1.294 -15.67,3.883c-4.067,2.588 -7.118,6.748 -9.152,12.48l-1.802,-1.387c2.126,-5.732 5.361,-9.984 9.706,-12.757c4.345,-2.774 9.984,-4.16 16.918,-4.16c7.857,-0 13.866,1.941 18.026,5.824c4.16,3.79 6.24,9.337 6.24,16.64l0,37.717c0,3.328 0.647,5.824 1.942,7.488c1.386,1.664 3.281,2.496 5.685,2.496Zm-37.579,0c3.975,0 8.089,-0.74 12.342,-2.219c4.345,-1.479 7.996,-3.744 10.954,-6.794c2.959,-3.143 4.438,-6.934 4.438,-11.371l-0,-16.779l-23.019,4.299c-8.875,1.664 -15.253,3.975 -19.136,6.933c-3.79,2.959 -5.685,6.795 -5.685,11.51c-0,4.529 1.756,8.089 5.269,10.677c3.605,2.496 8.551,3.744 14.837,3.744Z" style="fill:#6c7d3f;fill-rule:nonzero;"/></g><g id="path538390"><path d="M1574.27,306.236l0,101.227l-2.219,0l0,-20.8c-1.756,7.026 -5.084,12.48 -9.984,16.363c-4.899,3.882 -11.001,5.824 -18.304,5.824c-9.984,-0 -17.795,-3.19 -23.434,-9.568c-5.547,-6.379 -8.32,-15.207 -8.32,-26.486c-0,-11.278 2.773,-20.106 8.32,-26.485c5.639,-6.379 13.45,-9.568 23.434,-9.568c7.211,-0 13.266,1.895 18.166,5.685c4.992,3.791 8.366,9.199 10.122,16.224l0,-52.433l2.219,0.017Zm-30.091,100.672c8.505,0 15.254,-3.004 20.246,-9.013c5.084,-6.009 7.626,-14.19 7.626,-24.544l0,-0.971c0,-10.446 -2.542,-18.673 -7.626,-24.682c-4.992,-6.009 -11.741,-9.014 -20.246,-9.014c-9.429,0 -16.778,3.005 -22.048,9.014c-5.269,6.009 -7.904,14.375 -7.904,25.098c0,10.724 2.635,19.09 7.904,25.099c5.27,6.009 12.619,9.013 22.048,9.013Z" style="fill:#6c7d3f;fill-rule:nonzero;"/></g><g id="path538392"><path d="M1666.19,374.226l-58.102,0c0.278,10.262 3.005,18.258 8.182,23.99c5.177,5.731 12.295,8.597 21.354,8.597c5.824,0 11.047,-1.387 15.67,-4.16c4.714,-2.773 8.227,-6.564 10.538,-11.371l1.803,0.971c-2.404,5.177 -6.101,9.244 -11.093,12.203c-4.992,2.865 -10.631,4.298 -16.918,4.298c-9.984,0 -17.795,-3.189 -23.434,-9.568c-5.547,-6.378 -8.32,-15.207 -8.32,-26.485c-0,-11.278 2.727,-20.107 8.181,-26.485c5.547,-6.379 13.173,-9.568 22.88,-9.568c9.152,-0 16.316,3.235 21.493,9.706c5.177,6.471 7.766,15.439 7.766,26.902l-0,0.97Zm-29.259,-35.637c-8.967,0 -15.993,2.958 -21.077,8.875c-5.085,5.916 -7.673,14.144 -7.766,24.682l56.16,0c-0.185,-10.538 -2.634,-18.766 -7.349,-24.682c-4.715,-5.917 -11.371,-8.875 -19.968,-8.875Z" style="fill:#6c7d3f;fill-rule:nonzero;"/></g><g id="path538395"><path d="M116.376,1.551l-15.912,0l-100.464,218.4l17.16,0l91.104,-200.928l91.416,200.928l17.16,0l-100.464,-218.4Z" style="fill:#6c7d3f;fill-rule:nonzero;"/></g><g id="path538397"><path d="M277.096,1.551l0,218.4l141.648,0l0,-14.352l-125.71,0l0,-204.056l-15.938,0.008Z" style="fill:#73854f;fill-rule:nonzero;"/></g><g id="path538399"><path d="M510.729,207.168c17.16,9.672 36.504,14.352 58.032,14.352c15.6,0 29.952,-2.496 43.368,-7.8c13.416,-4.992 24.96,-12.792 34.32,-22.776l-9.984,-10.296c-17.784,17.472 -40.248,26.208 -67.08,26.208c-18.408,0 -34.944,-4.056 -49.92,-12.48c-14.976,-8.112 -26.832,-19.656 -35.256,-34.32c-8.736,-14.664 -12.792,-31.2 -12.792,-49.296c0,-18.096 4.056,-34.32 12.792,-48.984c8.424,-14.664 20.28,-26.208 35.256,-34.632c14.976,-8.112 31.512,-12.48 49.92,-12.48c27.144,0 49.608,8.736 67.08,25.896l9.984,-10.296c-9.36,-9.984 -20.904,-17.472 -34.008,-22.464c-13.416,-4.992 -28.08,-7.8 -43.68,-7.8c-21.528,0 -40.872,4.992 -58.032,14.352c-17.16,9.672 -30.576,22.776 -40.56,39.624c-9.984,16.848 -14.664,35.88 -14.664,56.784c0,21.216 4.68,39.936 14.664,56.784c9.984,16.848 23.4,30.264 40.56,39.624Z" style="fill:#7a8c5f;fill-rule:nonzero;"/></g><g id="path538401"><path d="M750.338,207.168c17.16,9.672 36.504,14.352 58.032,14.352c21.216,0 40.56,-4.68 58.032,-14.352c17.16,-9.36 30.576,-22.776 40.56,-39.624c9.984,-16.848 14.976,-35.568 14.976,-56.784c-0,-20.904 -4.992,-39.936 -14.976,-56.784c-9.984,-16.848 -23.4,-29.952 -40.56,-39.624c-17.472,-9.36 -36.816,-14.352 -58.032,-14.352c-21.528,0 -40.872,4.992 -58.032,14.664c-17.472,9.672 -30.888,22.776 -40.872,39.624c-9.984,16.848 -14.664,35.88 -14.664,56.472c-0,20.904 4.68,39.624 14.664,56.472c9.984,16.848 23.4,30.264 40.872,39.936Zm107.64,-12.792c-14.976,8.424 -31.512,12.48 -49.608,12.48c-18.408,0 -34.944,-4.056 -49.92,-12.48c-14.976,-8.112 -26.52,-19.656 -34.944,-34.32c-8.736,-14.664 -12.792,-31.2 -12.792,-49.296c-0,-18.096 4.056,-34.32 12.792,-48.984c8.424,-14.664 19.968,-26.208 34.944,-34.632c14.976,-8.112 31.512,-12.48 49.92,-12.48c18.096,0 34.632,4.368 49.608,12.48c14.664,8.424 26.208,19.968 34.944,34.632c8.424,14.664 12.792,30.888 12.792,48.984c-0,18.096 -4.368,34.632 -12.792,49.296c-8.736,14.664 -20.28,26.208 -34.944,34.32Z" style="fill:#81946f;fill-rule:nonzero;"/></g><g id="path538403"><path d="M1056.04,144.768l87.984,-143.208l-16.536,-0l-78.936,128.544l-78.936,-128.544l-17.472,-0l87.984,143.208l-0,75.192l15.912,0l-0,-75.192Z" style="fill:#899b80;fill-rule:nonzero;"/></g><g id="path538405"><path d="M1462.16,1.51l-15.912,-0l0,189.696l-148.503,-189.714l-13.416,0l-0,218.4l15.912,0l-0,-189.696l148.824,189.696l13.104,0l-0.009,-218.382Z" style="fill:#90a390;fill-rule:nonzero;"/></g><g id="path538407"><path d="M1700.33,101.956l-141.336,0l0,14.04l141.336,0l0,-14.04Zm0,-100.464l-141.336,0l0,14.352l141.336,0l0,-14.352Zm-141.336,204.048l0,14.352l141.336,0l0,-14.352l-141.336,0Z" style="fill:#97aaa0;fill-rule:nonzero;"/></g><g id="path538409"><path d="M1922.66,219.951l18.72,0l-83.928,-112.944l78,-105.456l-17.784,0l-69.576,93.912l-69.576,-93.912l-18.72,0l78,105.768l-83.928,112.632l18.72,0l74.88,-101.088l75.192,101.088Z" style="fill:#9eb2b0;fill-rule:nonzero;"/></g><g id="path538411"><path d="M2039.6,15.895l0,204.048l15.912,-0l0,-204.048l78.624,-0l0,-14.352l-173.16,-0l0,14.352l78.624,-0Z" style="fill:#a5b9c0;fill-rule:nonzero;"/></g></g></svg>