<?xml version="1.0" encoding="UTF-8" standalone="no"?><!DOCTYPE svg PUBLIC "-//W3C//DTD SVG 1.1//EN" "http://www.w3.org/Graphics/SVG/1.1/DTD/svg11.dtd"><svg width="100%" height="100%" viewBox="0 0 1550 250" version="1.1" xmlns="http://www.w3.org/2000/svg" xmlns:xlink="http://www.w3.org/1999/xlink" xml:space="preserve" xmlns:serif="http://www.serif.com/" style="fill-rule:evenodd;clip-rule:evenodd;stroke-linejoin:round;stroke-miterlimit:2;"><g id="logo"><path d="M128.407,51.05l-10.771,-0l-68.036,147.889l11.629,0l61.689,-136.056l61.896,136.056l11.614,0l-68.021,-147.889Z" style="fill:#6c7d3f;fill-rule:nonzero;"/><path d="M237.93,51.05l0,147.889l95.91,0l0,-9.725l-85.108,0l-0,-138.164l-10.802,-0Z" style="fill:#73854f;fill-rule:nonzero;"/><path d="M396.757,190.276c11.629,6.555 24.72,9.725 39.3,9.725c10.567,-0 20.277,-1.697 29.367,-5.282c9.078,-3.381 16.899,-8.663 23.231,-15.422l-6.759,-6.982c-12.044,11.837 -27.244,17.757 -45.412,17.757c-12.468,-0 -23.67,-2.747 -33.811,-8.459c-10.136,-5.49 -18.165,-13.31 -23.862,-23.228c-5.92,-9.933 -8.663,-21.135 -8.663,-33.383c-0,-12.249 2.743,-23.243 8.663,-33.16c5.697,-9.933 13.726,-17.757 23.862,-23.451c10.141,-5.508 21.343,-8.459 33.811,-8.459c18.376,-0 33.59,5.92 45.412,17.534l6.759,-6.967c-6.332,-6.759 -14.153,-11.837 -23.024,-15.214c-9.09,-3.382 -19.007,-5.286 -29.574,-5.286c-14.58,0 -27.671,3.382 -39.3,9.729c-11.618,6.536 -20.693,15.422 -27.467,26.828c-6.759,11.41 -9.917,24.293 -9.917,38.446c-0,14.36 3.158,27.036 9.917,38.446c6.774,11.406 15.849,20.496 27.467,26.828Z" style="fill:#7a8c5f;fill-rule:nonzero;"/><path d="M767.436,148.026l59.592,-96.976l-11.198,-0l-53.456,87.043l-53.438,-87.043l-11.836,-0l59.576,96.976l0,50.898l10.775,-0l-0.015,-50.898Z" style="fill:#899b80;fill-rule:nonzero;"/><path d="M1043.38,51.05l-10.771,-0l-0,128.455l-100.55,-128.455l-9.09,-0l-0,147.874l10.786,-0l-0,-128.44l100.769,128.44l8.871,-0l-0.015,-147.874Z" style="fill:#90a390;fill-rule:nonzero;"/><path d="M1205.41,119.07l-95.692,0l0,9.502l95.692,0l-0,-9.502Zm-0,-68.02l-95.692,-0l0,9.709l95.692,0l-0,-9.709Zm-95.692,138.149l0,9.725l95.692,-0l-0,-9.725l-95.692,0Z" style="fill:#97aaa0;fill-rule:nonzero;"/><path d="M1356.58,198.939l12.676,0l-56.834,-76.476l52.818,-71.413l-12.041,-0l-47.124,63.592l-47.094,-63.592l-12.675,-0l52.817,71.621l-56.83,76.268l12.676,0l50.709,-68.448l50.902,68.448Z" style="fill:#9eb2b0;fill-rule:nonzero;"/><path d="M1436.39,60.759l-0,138.18l10.775,0l-0,-138.165l53.233,0l0,-9.709l-117.238,-0l0,9.709l53.23,-0.015Z" style="fill:#a5b9c0;fill-rule:nonzero;"/></g><g id="sdg"><g><path id="Fill-1" d="M559.319,188.3c6.655,3.87 13.968,6.797 21.741,8.587l1.328,-6.686c-6.897,-1.633 -13.391,-4.249 -19.313,-7.686l-3.756,5.785Z" style="fill:#dc1464;"/><path id="Fill-3" d="M525.563,146.811c2.323,7.241 5.772,14.008 10.15,20.111l5.69,-4.099c-3.867,-5.432 -6.928,-11.437 -9.013,-17.856l-6.827,1.844Z" style="fill:#be8c28;"/><path id="Fill-5" d="M623.689,54.917c-7.387,-2.401 -15.279,-3.751 -23.48,-3.867l-0.019,6.565c7.336,0.1 14.399,1.283 21.023,3.395l2.476,-6.093Z" style="fill:#e6283c;"/><path id="Fill-7" d="M544.129,166.402l-5.683,4.095c4.817,5.921 10.55,11.119 16.998,15.394l3.762,-5.795c-5.703,-3.825 -10.789,-8.444 -15.077,-13.694" style="fill:#faa028;"/><path id="Fill-9" d="M666.868,141.972l6.569,1.827c1.639,-6.008 2.513,-12.314 2.513,-18.816c-0,-1.458 -0.046,-2.906 -0.132,-4.344l-6.773,0.575c0.068,1.214 0.104,2.436 0.104,3.667c-0,5.906 -0.794,11.633 -2.281,17.091" style="fill:#fa3c1e;"/><path id="Fill-11" d="M529.339,120.955l-7.031,-0.65c-0.101,1.547 -0.153,3.106 -0.153,4.678c0,6.048 0.756,11.925 2.181,17.551l6.83,-1.845c-1.271,-5.07 -1.949,-10.362 -1.949,-15.808c-0,-1.319 0.045,-2.627 0.122,-3.926" style="fill:#3c8246;"/><path id="Fill-13" d="M544.982,72.409c-5.532,5.261 -10.239,11.325 -13.916,17.994l6.26,3.022c3.271,-5.935 7.435,-11.345 12.325,-16.059l-4.669,-4.957Z" style="fill:#5abe28;"/><path id="Fill-15" d="M595.595,51.116c-8.114,0.345 -15.902,1.899 -23.173,4.48l2.466,6.177c6.496,-2.313 13.446,-3.728 20.686,-4.082l0.021,-6.575Z" style="fill:#1e466e;"/><path id="Fill-17" d="M529.029,94.384c-3.169,6.694 -5.329,13.921 -6.295,21.504l7.019,0.648c0.866,-6.735 2.767,-13.16 5.546,-19.125l-6.27,-3.027Z" style="fill:#0a96dc;"/><path id="Fill-19" d="M675.415,116.22c-0.978,-7.96 -3.269,-15.533 -6.662,-22.513l-6.074,2.889c3.026,6.269 5.077,13.061 5.966,20.198l6.77,-0.574Z" style="fill:#c81428;"/><path id="Fill-21" d="M613.809,197.564c7.986,-1.493 15.532,-4.175 22.428,-7.845l-3.645,-5.713c-6.178,3.234 -12.92,5.595 -20.045,6.921l1.262,6.637Z" style="fill:#a01446;"/><path id="Fill-23" d="M636.568,181.755l3.637,5.699c6.812,-4.156 12.899,-9.316 18.033,-15.262l-5.496,-4.026c-4.626,5.285 -10.08,9.877 -16.174,13.589" style="fill:#fac80a;"/><path id="Fill-25" d="M568.143,57.258c-7.249,3.063 -13.912,7.172 -19.784,12.126l4.659,4.947c5.233,-4.422 11.157,-8.106 17.598,-10.88l-2.473,-6.193Z" style="fill:#0064a0;"/><path id="Fill-27" d="M661.079,168.696c4.743,-6.214 8.5,-13.164 11.052,-20.642l-6.578,-1.83c-2.323,6.681 -5.707,12.892 -9.958,18.454l5.484,4.018Z" style="fill:#28bee6;"/><path id="Fill-29" d="M648.547,68.392c-6.106,-4.943 -13.024,-8.99 -20.533,-11.927l-2.471,6.082c6.727,2.633 12.934,6.242 18.426,10.647l4.578,-4.802Z" style="fill:#dca03c;"/><path id="Fill-31" d="M586.902,191.123l-1.324,6.669c4.375,0.745 8.877,1.132 13.475,1.132c3.459,-0 6.864,-0.22 10.202,-0.646l-1.265,-6.649c-2.885,0.347 -5.824,0.529 -8.807,0.529c-4.189,-0 -8.293,-0.355 -12.281,-1.035" style="fill:#fa6428;"/><path id="Fill-33" d="M660.601,92.634l6.073,-2.889c-3.875,-6.859 -8.846,-13.063 -14.686,-18.395l-4.572,4.795c5.232,4.788 9.692,10.349 13.185,16.489" style="fill:#50a03c;"/></g></g></svg>