<?xml version="1.0" encoding="UTF-8" standalone="no"?>
<svg
   xmlns:dc="http://purl.org/dc/elements/1.1/"
   xmlns:cc="http://creativecommons.org/ns#"
   xmlns:rdf="http://www.w3.org/1999/02/22-rdf-syntax-ns#"
   xmlns:svg="http://www.w3.org/2000/svg"
   xmlns="http://www.w3.org/2000/svg"
   id="svg28"
   xml:space="preserve"
   enable-background="new 0 0 1024 1024"
   viewBox="0 0 1024 1024"
   y="0px"
   x="0px"
   version="1.1"><metadata
     id="metadata34"><rdf:RDF><cc:Work
         rdf:about=""><dc:format>image/svg+xml</dc:format><dc:type
           rdf:resource="http://purl.org/dc/dcmitype/StillImage" /></cc:Work></rdf:RDF></metadata><defs
     id="defs32" /><g
     id="g26"
     transform="translate(0,128)"><g
       style="stroke-width:0;stroke-miterlimit:2"
       transform="matrix(1.0355,0,0,1.0355,-18.172,-13.629)"
       stroke-miterlimit="2"
       id="logo-group"><path
         d="m 387.87,427.7 -6.4,-9.632 q -0.192,0.032 -0.64,0.032 h -7.136 v 9.6 h -0.512 v -21.12 h 7.648 q 3.104,0 4.896,1.536 1.792,1.536 1.792,4.224 0,2.4 -1.44,3.904 -1.44,1.472 -4,1.792 l 6.368,9.664 z m -7.04,-10.048 q 2.912,0 4.544,-1.408 1.632,-1.408 1.632,-3.904 0,-2.496 -1.632,-3.904 -1.632,-1.408 -4.544,-1.408 h -7.136 v 10.624 z"
         style="font-variant-ligatures:none;fill:#6c7d3f"
         id="path538366" /><path
         d="m 407.69,420.05 h -13.408 q 0.096,3.552 1.888,5.536 1.792,1.984 4.928,1.984 2.016,0 3.616,-0.96 1.632,-0.96 2.432,-2.624 l 0.416,0.224 q -0.832,1.792 -2.56,2.816 -1.728,0.992 -3.904,0.992 -3.456,0 -5.408,-2.208 -1.92,-2.208 -1.92,-6.112 0,-3.904 1.888,-6.112 1.92,-2.208 5.28,-2.208 3.168,0 4.96,2.24 1.792,2.24 1.792,6.208 z m -6.752,-8.224 q -3.104,0 -4.864,2.048 -1.76,2.048 -1.792,5.696 h 12.96 q -0.064,-3.648 -1.696,-5.696 -1.632,-2.048 -4.608,-2.048 z"
         style="font-variant-ligatures:none;fill:#6c7d3f"
         id="path538368" /><path
         d="m 421.96,411.38 q 3.456,0 5.376,2.208 1.952,2.208 1.952,6.112 0,3.904 -1.952,6.112 -1.92,2.208 -5.376,2.208 -2.496,0 -4.224,-1.312 -1.696,-1.312 -2.304,-3.744 V 434.42 H 414.92 V 411.7 h 0.512 v 4.8 q 0.608,-2.432 2.304,-3.776 1.696,-1.344 4.224,-1.344 z m -0.096,16.192 q 3.264,0 5.088,-2.08 1.824,-2.08 1.824,-5.792 0,-3.712 -1.824,-5.792 -1.824,-2.08 -5.088,-2.08 -2.944,0 -4.704,2.08 -1.728,2.08 -1.728,5.664 v 0.224 q 0,3.616 1.728,5.696 1.76,2.08 4.704,2.08 z"
         style="font-variant-ligatures:none;fill:#6c7d3f"
         id="path538370" /><path
         d="m 449.25,427.57 q 0.832,0 1.216,-0.288 l -0.032,0.448 q -0.416,0.288 -1.152,0.288 -0.96,0 -1.632,-0.64 -0.672,-0.64 -0.672,-2.304 v -0.448 q -0.64,1.632 -2.528,2.528 -1.856,0.864 -4.032,0.864 -2.336,0 -3.68,-0.992 -1.312,-0.992 -1.312,-2.784 0,-1.888 1.376,-2.976 1.376,-1.088 4.512,-1.664 l 5.664,-1.056 v -1.984 q 0,-2.24 -1.312,-3.488 -1.312,-1.248 -3.776,-1.248 -2.208,0 -3.616,0.896 -1.408,0.896 -2.112,2.88 l -0.416,-0.32 q 0.736,-1.984 2.24,-2.944 1.504,-0.96 3.904,-0.96 2.72,0 4.16,1.344 1.44,1.312 1.44,3.84 v 8.704 q 0,1.152 0.448,1.728 0.48,0.576 1.312,0.576 z m -8.672,0 q 1.376,0 2.848,-0.512 1.504,-0.512 2.528,-1.568 1.024,-1.088 1.024,-2.624 v -3.872 l -5.312,0.992 q -3.072,0.576 -4.416,1.6 -1.312,1.024 -1.312,2.656 0,1.568 1.216,2.464 1.248,0.864 3.424,0.864 z"
         style="font-variant-ligatures:none;fill:#6c7d3f"
         id="path538372" /><path
         d="m 456.49,408.56 q -0.32,0 -0.512,-0.192 -0.192,-0.192 -0.192,-0.512 0,-0.32 0.192,-0.512 0.192,-0.192 0.512,-0.192 0.32,0 0.512,0.192 0.192,0.192 0.192,0.512 0,0.32 -0.192,0.512 -0.192,0.192 -0.512,0.192 z m 0.256,19.136 h -0.512 v -16 h 0.512 z"
         style="font-variant-ligatures:none;fill:#6c7d3f"
         id="path538374" /><path
         d="m 470.93,411.38 q 1.504,0 2.272,0.768 l -0.288,0.384 q -0.352,-0.352 -0.8,-0.512 -0.416,-0.192 -1.248,-0.192 -1.44,0 -2.624,0.928 -1.184,0.928 -1.888,2.464 -0.672,1.504 -0.672,3.168 v 9.312 h -0.512 v -16 h 0.512 v 4.16 q 0.544,-1.952 1.952,-3.2 1.408,-1.28 3.296,-1.28 z"
         style="font-variant-ligatures:none;fill:#6c7d3f"
         id="path538376" /><path
         d="m 498.78,424.6 q 1.472,1.728 2.432,2.368 0.96,0.64 1.952,0.64 l -0.032,0.416 q -1.12,0 -2.144,-0.672 -1.024,-0.672 -2.496,-2.368 -2.304,3.04 -6.368,3.04 -2.624,0 -4.352,-1.28 -1.696,-1.28 -1.696,-3.488 0,-1.568 0.672,-2.72 0.704,-1.184 1.856,-2.112 1.184,-0.928 3.168,-2.08 -1.696,-2.272 -2.272,-3.36 -0.576,-1.12 -0.576,-2.336 0,-1.952 1.216,-3.104 1.216,-1.152 3.264,-1.152 1.952,0 3.104,1.024 1.184,1.024 1.184,2.752 0,1.76 -1.088,3.168 -1.088,1.376 -3.936,3.04 -0.128,0.064 -0.192,0.128 l 1.44,1.92 0.832,1.088 q 2.56,3.36 3.68,4.704 1.056,-1.536 1.536,-3.648 0.512,-2.112 0.512,-4.576 h 0.48 q 0,2.464 -0.544,4.704 -0.512,2.24 -1.632,3.904 z m -9.344,-13.952 q 0,0.8 0.192,1.44 0.224,0.64 0.768,1.504 0.544,0.864 1.76,2.496 l 0.192,-0.096 q 2.752,-1.6 3.776,-2.88 1.056,-1.312 1.056,-2.944 0,-1.504 -1.024,-2.4 -1.024,-0.928 -2.752,-0.928 -1.792,0 -2.88,1.056 -1.088,1.024 -1.088,2.752 z m 2.592,16.928 q 4,0 6.144,-2.976 -1.632,-1.952 -3.712,-4.736 -0.864,-1.152 -2.4,-3.136 -1.92,1.12 -3.04,1.984 -1.12,0.832 -1.792,1.952 -0.64,1.088 -0.64,2.592 0,1.984 1.536,3.168 1.568,1.152 3.904,1.152 z"
         style="font-variant-ligatures:none;fill:#6c7d3f"
         id="path538378" /><path
         d="m 533.8,420.18 q 0,3.744 -2.112,5.792 -2.08,2.048 -5.856,2.048 -3.776,0 -5.888,-2.048 -2.08,-2.048 -2.08,-5.792 v -13.6 h 0.512 v 13.6 q 0,3.52 1.952,5.472 1.984,1.92 5.504,1.92 3.52,0 5.472,-1.92 1.984,-1.952 1.984,-5.472 v -13.6 h 0.512 z"
         style="font-variant-ligatures:none;fill:#6c7d3f"
         id="path538380" /><path
         d="m 549.46,411.38 q 3.456,0 5.376,2.208 1.952,2.208 1.952,6.112 0,3.904 -1.952,6.112 -1.92,2.208 -5.376,2.208 -2.496,0 -4.224,-1.312 -1.696,-1.312 -2.304,-3.744 V 434.42 H 542.42 V 411.7 h 0.512 v 4.8 q 0.608,-2.432 2.304,-3.776 1.696,-1.344 4.224,-1.344 z m -0.096,16.192 q 3.264,0 5.088,-2.08 1.824,-2.08 1.824,-5.792 0,-3.712 -1.824,-5.792 -1.824,-2.08 -5.088,-2.08 -2.944,0 -4.704,2.08 -1.728,2.08 -1.728,5.664 v 0.224 q 0,3.616 1.728,5.696 1.76,2.08 4.704,2.08 z"
         style="font-variant-ligatures:none;fill:#6c7d3f"
         id="path538382" /><path
         d="m 571.88,426.52 q 2.432,0 3.872,0.96 1.44,0.96 1.44,2.56 0,1.344 -0.928,2.368 -0.896,1.024 -2.56,1.6 -1.664,0.576 -3.808,0.576 -3.392,0 -5.376,-1.184 -1.984,-1.152 -1.984,-3.104 0,-1.344 0.96,-2.304 0.992,-0.928 2.624,-1.216 -1.216,-0.32 -1.92,-1.024 -0.672,-0.736 -0.672,-1.696 0,-1.216 0.928,-2.016 0.928,-0.832 2.4,-1.056 -1.664,-0.544 -2.592,-1.728 -0.896,-1.216 -0.896,-2.848 0,-2.272 1.728,-3.648 1.76,-1.376 4.608,-1.376 2.304,0 3.872,0.928 0.096,-1.632 1.056,-2.592 0.96,-0.96 2.528,-0.96 l 0.16,0.448 q -1.504,0 -2.4,0.896 -0.864,0.896 -0.928,2.464 0.96,0.672 1.472,1.664 0.512,0.96 0.512,2.176 0,2.272 -1.728,3.648 -1.696,1.376 -4.544,1.376 -0.896,0 -1.856,-0.16 -1.664,0.096 -2.752,0.864 -1.056,0.768 -1.056,1.856 0,1.12 1.024,1.824 1.024,0.704 2.88,0.704 z m -8,-10.112 q 0,2.08 1.6,3.328 1.6,1.248 4.224,1.248 2.624,0 4.192,-1.248 1.568,-1.248 1.568,-3.328 0,-2.08 -1.568,-3.328 -1.568,-1.248 -4.192,-1.248 -2.624,0 -4.224,1.248 -1.6,1.248 -1.6,3.328 z m 6.08,17.728 q 1.888,0 3.424,-0.512 1.536,-0.512 2.4,-1.44 0.896,-0.896 0.896,-2.08 0,-1.408 -1.312,-2.272 -1.312,-0.864 -3.52,-0.864 h -4.096 q -2.08,0 -3.392,0.896 -1.312,0.928 -1.312,2.368 0,1.76 1.856,2.816 1.888,1.088 5.056,1.088 z"
         style="font-variant-ligatures:none;fill:#6c7d3f"
         id="path538384" /><path
         d="m 588.81,411.38 q 1.504,0 2.272,0.768 l -0.288,0.384 q -0.352,-0.352 -0.8,-0.512 -0.416,-0.192 -1.248,-0.192 -1.44,0 -2.624,0.928 -1.184,0.928 -1.888,2.464 -0.672,1.504 -0.672,3.168 v 9.312 h -0.512 v -16 h 0.512 v 4.16 q 0.544,-1.952 1.952,-3.2 1.408,-1.28 3.296,-1.28 z"
         style="font-variant-ligatures:none;fill:#6c7d3f"
         id="path538386" /><path
         d="m 609.25,427.57 q 0.832,0 1.216,-0.288 l -0.032,0.448 q -0.416,0.288 -1.152,0.288 -0.96,0 -1.632,-0.64 -0.672,-0.64 -0.672,-2.304 v -0.448 q -0.64,1.632 -2.528,2.528 -1.856,0.864 -4.032,0.864 -2.336,0 -3.68,-0.992 -1.312,-0.992 -1.312,-2.784 0,-1.888 1.376,-2.976 1.376,-1.088 4.512,-1.664 l 5.664,-1.056 v -1.984 q 0,-2.24 -1.312,-3.488 -1.312,-1.248 -3.776,-1.248 -2.208,0 -3.616,0.896 -1.408,0.896 -2.112,2.88 l -0.416,-0.32 q 0.736,-1.984 2.24,-2.944 1.504,-0.96 3.904,-0.96 2.72,0 4.16,1.344 1.44,1.312 1.44,3.84 v 8.704 q 0,1.152 0.448,1.728 0.48,0.576 1.312,0.576 z m -8.672,0 q 1.376,0 2.848,-0.512 1.504,-0.512 2.528,-1.568 1.024,-1.088 1.024,-2.624 v -3.872 l -5.312,0.992 q -3.072,0.576 -4.416,1.6 -1.312,1.024 -1.312,2.656 0,1.568 1.216,2.464 1.248,0.864 3.424,0.864 z"
         style="font-variant-ligatures:none;fill:#6c7d3f"
         id="path538388" /><path
         d="m 629.52,404.34 v 23.36 h -0.512 v -4.8 q -0.608,2.432 -2.304,3.776 -1.696,1.344 -4.224,1.344 -3.456,0 -5.408,-2.208 -1.92,-2.208 -1.92,-6.112 0,-3.904 1.92,-6.112 1.952,-2.208 5.408,-2.208 2.496,0 4.192,1.312 1.728,1.312 2.336,3.744 v -12.1 z m -6.944,23.232 q 2.944,0 4.672,-2.08 1.76,-2.08 1.76,-5.664 v -0.224 q 0,-3.616 -1.76,-5.696 -1.728,-2.08 -4.672,-2.08 -3.264,0 -5.088,2.08 -1.824,2.08 -1.824,5.792 0,3.712 1.824,5.792 1.824,2.08 5.088,2.08 z"
         style="font-variant-ligatures:none;fill:#6c7d3f"
         id="path538390" /><path
         d="m 650.82,420.05 h -13.408 q 0.096,3.552 1.888,5.536 1.792,1.984 4.928,1.984 2.016,0 3.616,-0.96 1.632,-0.96 2.432,-2.624 l 0.416,0.224 q -0.832,1.792 -2.56,2.816 -1.728,0.992 -3.904,0.992 -3.456,0 -5.408,-2.208 -1.92,-2.208 -1.92,-6.112 0,-3.904 1.888,-6.112 1.92,-2.208 5.28,-2.208 3.168,0 4.96,2.24 1.792,2.24 1.792,6.208 z m -6.752,-8.224 q -3.104,0 -4.864,2.048 -1.76,2.048 -1.792,5.696 h 12.96 q -0.064,-3.648 -1.696,-5.696 -1.632,-2.048 -4.608,-2.048 z"
         style="font-variant-ligatures:none;fill:#6c7d3f"
         id="path538392" /><path
         d="m 291.63,333.78 h -3.672 l -23.184,50.4 h 3.96 l 21.024,-46.368 21.096,46.368 h 3.96 z"
         style="font-variant-ligatures:none;fill:#6c7d3f"
         id="path538395" /><path
         d="m 328.96,333.78 v 50.4 h 32.688 v -3.312 h -29.01 v -47.09 z"
         style="font-variant-ligatures:none;fill:#73854f"
         id="path538397" /><path
         d="m 383.09,381.23 c 3.96,2.232 8.424,3.312 13.392,3.312 3.6,0 6.912,-0.576 10.008,-1.8 3.096,-1.152 5.76,-2.952 7.92,-5.256 l -2.304,-2.376 c -4.104,4.032 -9.288,6.048 -15.48,6.048 -4.248,0 -8.064,-0.936 -11.52,-2.88 -3.456,-1.872 -6.192,-4.536 -8.136,-7.92 -2.016,-3.384 -2.952,-7.2 -2.952,-11.376 0,-4.176 0.936,-7.92 2.952,-11.304 1.944,-3.384 4.68,-6.048 8.136,-7.992 3.456,-1.872 7.272,-2.88 11.52,-2.88 6.264,0 11.448,2.016 15.48,5.976 l 2.304,-2.376 c -2.16,-2.304 -4.824,-4.032 -7.848,-5.184 -3.096,-1.152 -6.48,-1.8 -10.08,-1.8 -4.968,0 -9.432,1.152 -13.392,3.312 -3.96,2.232 -7.056,5.256 -9.36,9.144 -2.304,3.888 -3.384,8.28 -3.384,13.104 0,4.896 1.08,9.216 3.384,13.104 2.304,3.888 5.4,6.984 9.36,9.144 z"
         style="font-variant-ligatures:none;fill:#7a8c5f"
         id="path538399" /><path
         d="m 438.64,381.23 c 3.96,2.232 8.424,3.312 13.392,3.312 4.896,0 9.36,-1.08 13.392,-3.312 3.96,-2.16 7.056,-5.256 9.36,-9.144 2.304,-3.888 3.456,-8.208 3.456,-13.104 0,-4.824 -1.152,-9.216 -3.456,-13.104 -2.304,-3.888 -5.4,-6.912 -9.36,-9.144 -4.032,-2.16 -8.496,-3.312 -13.392,-3.312 -4.968,0 -9.432,1.152 -13.392,3.384 -4.032,2.232 -7.128,5.256 -9.432,9.144 -2.304,3.888 -3.384,8.28 -3.384,13.032 0,4.824 1.08,9.144 3.384,13.032 2.304,3.888 5.4,6.984 9.432,9.216 z m 24.84,-2.952 c -3.456,1.944 -7.272,2.88 -11.448,2.88 -4.248,0 -8.064,-0.936 -11.52,-2.88 -3.456,-1.872 -6.12,-4.536 -8.064,-7.92 -2.016,-3.384 -2.952,-7.2 -2.952,-11.376 0,-4.176 0.936,-7.92 2.952,-11.304 1.944,-3.384 4.608,-6.048 8.064,-7.992 3.456,-1.872 7.272,-2.88 11.52,-2.88 4.176,0 7.992,1.008 11.448,2.88 3.384,1.944 6.048,4.608 8.064,7.992 1.944,3.384 2.952,7.128 2.952,11.304 0,4.176 -1.008,7.992 -2.952,11.376 -2.016,3.384 -4.68,6.048 -8.064,7.92 z"
         style="font-variant-ligatures:none;fill:#81946f"
         id="path538401" /><path
         d="m 509.42,366.83 20.304,-33.048 h -3.816 l -18.216,29.664 -18.216,-29.664 h -4.032 l 20.304,33.048 v 17.352 h 3.672 z"
         style="font-variant-ligatures:none;fill:#899b80"
         id="path538403" /><path
         d="m 603.47,333.78 h -3.672 v 43.776 l -34.27,-43.78 h -3.096 v 50.4 h 3.672 V 340.4 l 34.344,43.776 h 3.024 z"
         style="font-variant-ligatures:none;fill:#90a390"
         id="path538405" /><path
         d="m 658.69,356.96 h -32.616 v 3.24 h 32.616 z m 0,-23.184 h -32.616 v 3.312 h 32.616 z m -32.616,47.088 v 3.312 h 32.616 v -3.312 z"
         style="font-variant-ligatures:none;fill:#97aaa0"
         id="path538407" /><path
         d="m 710.21,384.18 h 4.32 l -19.368,-26.064 18,-24.336 h -4.104 l -16.056,21.672 -16.056,-21.672 h -4.32 l 18,24.408 -19.368,25.992 h 4.32 l 17.28,-23.328 z"
         style="font-variant-ligatures:none;fill:#9eb2b0"
         id="path538409" /><path
         d="m 737.41,337.09 v 47.088 h 3.672 V 337.09 h 18.144 v -3.312 h -39.96 v 3.312 z"
         style="font-variant-ligatures:none;fill:#a5b9c0"
         id="path538411" /></g></g></svg>