<?xml version="1.0" encoding="UTF-8" standalone="no"?><!DOCTYPE svg PUBLIC "-//W3C//DTD SVG 1.1//EN" "http://www.w3.org/Graphics/SVG/1.1/DTD/svg11.dtd"><svg width="100%" height="100%" viewBox="0 0 2135 222" version="1.1" xmlns="http://www.w3.org/2000/svg" xmlns:xlink="http://www.w3.org/1999/xlink" xml:space="preserve" xmlns:serif="http://www.serif.com/" style="fill-rule:evenodd;clip-rule:evenodd;stroke-linejoin:round;stroke-miterlimit:2;"><g><g id="path538395"><path d="M116.376,1.551l-15.912,0l-100.464,218.4l17.16,0l91.104,-200.928l91.416,200.928l17.16,0l-100.464,-218.4Z" style="fill:#6c7d3f;fill-rule:nonzero;"/></g><g id="path538397"><path d="M277.096,1.551l0,218.4l141.648,0l0,-14.352l-125.71,0l0,-204.056l-15.938,0.008Z" style="fill:#73854f;fill-rule:nonzero;"/></g><g id="path538399"><path d="M510.729,207.168c17.16,9.672 36.504,14.352 58.032,14.352c15.6,0 29.952,-2.496 43.368,-7.8c13.416,-4.992 24.96,-12.792 34.32,-22.776l-9.984,-10.296c-17.784,17.472 -40.248,26.208 -67.08,26.208c-18.408,0 -34.944,-4.056 -49.92,-12.48c-14.976,-8.112 -26.832,-19.656 -35.256,-34.32c-8.736,-14.664 -12.792,-31.2 -12.792,-49.296c0,-18.096 4.056,-34.32 12.792,-48.984c8.424,-14.664 20.28,-26.208 35.256,-34.632c14.976,-8.112 31.512,-12.48 49.92,-12.48c27.144,0 49.608,8.736 67.08,25.896l9.984,-10.296c-9.36,-9.984 -20.904,-17.472 -34.008,-22.464c-13.416,-4.992 -28.08,-7.8 -43.68,-7.8c-21.528,0 -40.872,4.992 -58.032,14.352c-17.16,9.672 -30.576,22.776 -40.56,39.624c-9.984,16.848 -14.664,35.88 -14.664,56.784c0,21.216 4.68,39.936 14.664,56.784c9.984,16.848 23.4,30.264 40.56,39.624Z" style="fill:#7a8c5f;fill-rule:nonzero;"/></g><g id="path538401"><path d="M750.338,207.168c17.16,9.672 36.504,14.352 58.032,14.352c21.216,0 40.56,-4.68 58.032,-14.352c17.16,-9.36 30.576,-22.776 40.56,-39.624c9.984,-16.848 14.976,-35.568 14.976,-56.784c-0,-20.904 -4.992,-39.936 -14.976,-56.784c-9.984,-16.848 -23.4,-29.952 -40.56,-39.624c-17.472,-9.36 -36.816,-14.352 -58.032,-14.352c-21.528,0 -40.872,4.992 -58.032,14.664c-17.472,9.672 -30.888,22.776 -40.872,39.624c-9.984,16.848 -14.664,35.88 -14.664,56.472c-0,20.904 4.68,39.624 14.664,56.472c9.984,16.848 23.4,30.264 40.872,39.936Zm107.64,-12.792c-14.976,8.424 -31.512,12.48 -49.608,12.48c-18.408,0 -34.944,-4.056 -49.92,-12.48c-14.976,-8.112 -26.52,-19.656 -34.944,-34.32c-8.736,-14.664 -12.792,-31.2 -12.792,-49.296c-0,-18.096 4.056,-34.32 12.792,-48.984c8.424,-14.664 19.968,-26.208 34.944,-34.632c14.976,-8.112 31.512,-12.48 49.92,-12.48c18.096,0 34.632,4.368 49.608,12.48c14.664,8.424 26.208,19.968 34.944,34.632c8.424,14.664 12.792,30.888 12.792,48.984c-0,18.096 -4.368,34.632 -12.792,49.296c-8.736,14.664 -20.28,26.208 -34.944,34.32Z" style="fill:#81946f;fill-rule:nonzero;"/></g><g id="path538403"><path d="M1056.04,144.768l87.984,-143.208l-16.536,-0l-78.936,128.544l-78.936,-128.544l-17.472,-0l87.984,143.208l-0,75.192l15.912,0l-0,-75.192Z" style="fill:#899b80;fill-rule:nonzero;"/></g><g id="path538405"><path d="M1462.16,1.51l-15.912,-0l0,189.696l-148.503,-189.714l-13.416,0l-0,218.4l15.912,0l-0,-189.696l148.824,189.696l13.104,0l-0.009,-218.382Z" style="fill:#90a390;fill-rule:nonzero;"/></g><g id="path538407"><path d="M1700.33,101.956l-141.336,0l0,14.04l141.336,0l0,-14.04Zm0,-100.464l-141.336,0l0,14.352l141.336,0l0,-14.352Zm-141.336,204.048l0,14.352l141.336,0l0,-14.352l-141.336,0Z" style="fill:#97aaa0;fill-rule:nonzero;"/></g><g id="path538409"><path d="M1922.66,219.951l18.72,0l-83.928,-112.944l78,-105.456l-17.784,0l-69.576,93.912l-69.576,-93.912l-18.72,0l78,105.768l-83.928,112.632l18.72,0l74.88,-101.088l75.192,101.088Z" style="fill:#9eb2b0;fill-rule:nonzero;"/></g><g id="path538411"><path d="M2039.6,15.895l0,204.048l15.912,-0l0,-204.048l78.624,-0l0,-14.352l-173.16,-0l0,14.352l78.624,-0Z" style="fill:#a5b9c0;fill-rule:nonzero;"/></g></g></svg>